<mxfile host="app.diagrams.net" modified="2023-04-02T13:12:47.079Z" agent="Mozilla/5.0 (Macintosh; Intel Mac OS X 10_15_7) AppleWebKit/537.36 (KHTML, like Gecko) Chrome/111.0.0.0 Safari/537.36 Edg/111.0.1661.62" etag="7hknlP1-3NOolZtGhiHA" version="21.1.2" type="github">
  <diagram name="Page-1" id="VmHukzARIwJBqGlxwDIw">
    <mxGraphModel dx="1154" dy="958" grid="1" gridSize="10" guides="1" tooltips="1" connect="1" arrows="1" fold="1" page="1" pageScale="1" pageWidth="850" pageHeight="1100" math="0" shadow="0">
      <root>
        <mxCell id="0" />
        <mxCell id="1" parent="0" />
        <mxCell id="vuSV0FD79FYL1Kji3ITV-43" value="" style="group" vertex="1" connectable="0" parent="1">
          <mxGeometry width="610" height="680" as="geometry" />
        </mxCell>
        <mxCell id="vuSV0FD79FYL1Kji3ITV-2" value="" style="endArrow=classic;html=1;rounded=0;exitX=1;exitY=0.5;exitDx=0;exitDy=0;" edge="1" parent="vuSV0FD79FYL1Kji3ITV-43" source="vuSV0FD79FYL1Kji3ITV-1">
          <mxGeometry width="50" height="50" relative="1" as="geometry">
            <mxPoint x="200" y="260" as="sourcePoint" />
            <mxPoint x="240" y="100" as="targetPoint" />
          </mxGeometry>
        </mxCell>
        <mxCell id="vuSV0FD79FYL1Kji3ITV-20" style="edgeStyle=orthogonalEdgeStyle;rounded=0;orthogonalLoop=1;jettySize=auto;html=1;exitX=1;exitY=0.5;exitDx=0;exitDy=0;" edge="1" parent="vuSV0FD79FYL1Kji3ITV-43" source="vuSV0FD79FYL1Kji3ITV-1">
          <mxGeometry relative="1" as="geometry">
            <mxPoint x="240" y="30" as="targetPoint" />
            <Array as="points">
              <mxPoint x="160" y="100" />
              <mxPoint x="160" y="30" />
              <mxPoint x="190" y="30" />
            </Array>
          </mxGeometry>
        </mxCell>
        <mxCell id="vuSV0FD79FYL1Kji3ITV-26" style="edgeStyle=orthogonalEdgeStyle;rounded=0;orthogonalLoop=1;jettySize=auto;html=1;exitX=1;exitY=0.5;exitDx=0;exitDy=0;" edge="1" parent="vuSV0FD79FYL1Kji3ITV-43" source="vuSV0FD79FYL1Kji3ITV-1">
          <mxGeometry relative="1" as="geometry">
            <mxPoint x="240" y="170" as="targetPoint" />
            <Array as="points">
              <mxPoint x="160" y="100" />
              <mxPoint x="160" y="170" />
            </Array>
          </mxGeometry>
        </mxCell>
        <mxCell id="vuSV0FD79FYL1Kji3ITV-1" value="Khách hàng tiềm năng" style="rounded=0;whiteSpace=wrap;html=1;movable=1;resizable=1;rotatable=1;deletable=1;editable=1;locked=0;connectable=1;" vertex="1" parent="vuSV0FD79FYL1Kji3ITV-43">
          <mxGeometry y="80" width="130" height="40" as="geometry" />
        </mxCell>
        <mxCell id="vuSV0FD79FYL1Kji3ITV-3" value="Xem sản phẩm" style="rounded=0;whiteSpace=wrap;html=1;" vertex="1" parent="vuSV0FD79FYL1Kji3ITV-43">
          <mxGeometry x="240" y="80" width="130" height="40" as="geometry" />
        </mxCell>
        <mxCell id="vuSV0FD79FYL1Kji3ITV-21" value="Xem trang chủ" style="rounded=0;whiteSpace=wrap;html=1;" vertex="1" parent="vuSV0FD79FYL1Kji3ITV-43">
          <mxGeometry x="240" width="130" height="40" as="geometry" />
        </mxCell>
        <mxCell id="vuSV0FD79FYL1Kji3ITV-23" value="Xem theo chủng loại" style="rounded=0;whiteSpace=wrap;html=1;" vertex="1" parent="vuSV0FD79FYL1Kji3ITV-43">
          <mxGeometry x="480" y="40" width="130" height="40" as="geometry" />
        </mxCell>
        <mxCell id="vuSV0FD79FYL1Kji3ITV-22" style="edgeStyle=orthogonalEdgeStyle;rounded=0;orthogonalLoop=1;jettySize=auto;html=1;exitX=1;exitY=0.5;exitDx=0;exitDy=0;entryX=0;entryY=0.5;entryDx=0;entryDy=0;" edge="1" parent="vuSV0FD79FYL1Kji3ITV-43" source="vuSV0FD79FYL1Kji3ITV-3" target="vuSV0FD79FYL1Kji3ITV-23">
          <mxGeometry relative="1" as="geometry">
            <mxPoint x="500" y="30" as="targetPoint" />
            <Array as="points">
              <mxPoint x="400" y="100" />
              <mxPoint x="400" y="60" />
            </Array>
          </mxGeometry>
        </mxCell>
        <mxCell id="vuSV0FD79FYL1Kji3ITV-25" value="Xem theo NSX" style="rounded=0;whiteSpace=wrap;html=1;" vertex="1" parent="vuSV0FD79FYL1Kji3ITV-43">
          <mxGeometry x="480" y="120" width="130" height="40" as="geometry" />
        </mxCell>
        <mxCell id="vuSV0FD79FYL1Kji3ITV-24" style="edgeStyle=orthogonalEdgeStyle;rounded=0;orthogonalLoop=1;jettySize=auto;html=1;exitX=1;exitY=0.5;exitDx=0;exitDy=0;entryX=0;entryY=0.5;entryDx=0;entryDy=0;" edge="1" parent="vuSV0FD79FYL1Kji3ITV-43" source="vuSV0FD79FYL1Kji3ITV-3" target="vuSV0FD79FYL1Kji3ITV-25">
          <mxGeometry relative="1" as="geometry">
            <mxPoint x="500" y="100" as="targetPoint" />
            <Array as="points">
              <mxPoint x="400" y="100" />
              <mxPoint x="400" y="140" />
            </Array>
          </mxGeometry>
        </mxCell>
        <mxCell id="vuSV0FD79FYL1Kji3ITV-27" value="Tìm kiếm" style="rounded=0;whiteSpace=wrap;html=1;" vertex="1" parent="vuSV0FD79FYL1Kji3ITV-43">
          <mxGeometry x="240" y="160" width="130" height="40" as="geometry" />
        </mxCell>
        <mxCell id="vuSV0FD79FYL1Kji3ITV-29" value="Xem chi tiết SP" style="rounded=0;whiteSpace=wrap;html=1;" vertex="1" parent="vuSV0FD79FYL1Kji3ITV-43">
          <mxGeometry x="240" y="240" width="130" height="40" as="geometry" />
        </mxCell>
        <mxCell id="vuSV0FD79FYL1Kji3ITV-28" style="edgeStyle=orthogonalEdgeStyle;rounded=0;orthogonalLoop=1;jettySize=auto;html=1;exitX=1;exitY=0.5;exitDx=0;exitDy=0;entryX=0;entryY=0.5;entryDx=0;entryDy=0;" edge="1" parent="vuSV0FD79FYL1Kji3ITV-43" source="vuSV0FD79FYL1Kji3ITV-1" target="vuSV0FD79FYL1Kji3ITV-29">
          <mxGeometry relative="1" as="geometry">
            <mxPoint x="160" y="240" as="targetPoint" />
            <Array as="points">
              <mxPoint x="160" y="100" />
              <mxPoint x="160" y="260" />
            </Array>
          </mxGeometry>
        </mxCell>
        <mxCell id="vuSV0FD79FYL1Kji3ITV-30" value="Xem khuyến mại" style="rounded=0;whiteSpace=wrap;html=1;" vertex="1" parent="vuSV0FD79FYL1Kji3ITV-43">
          <mxGeometry x="240" y="320" width="130" height="40" as="geometry" />
        </mxCell>
        <mxCell id="vuSV0FD79FYL1Kji3ITV-31" style="edgeStyle=orthogonalEdgeStyle;rounded=0;orthogonalLoop=1;jettySize=auto;html=1;entryX=0;entryY=0.5;entryDx=0;entryDy=0;" edge="1" parent="vuSV0FD79FYL1Kji3ITV-43" source="vuSV0FD79FYL1Kji3ITV-1" target="vuSV0FD79FYL1Kji3ITV-30">
          <mxGeometry relative="1" as="geometry">
            <Array as="points">
              <mxPoint x="160" y="100" />
              <mxPoint x="160" y="340" />
            </Array>
          </mxGeometry>
        </mxCell>
        <mxCell id="vuSV0FD79FYL1Kji3ITV-32" value="Xem so sánh" style="rounded=0;whiteSpace=wrap;html=1;" vertex="1" parent="vuSV0FD79FYL1Kji3ITV-43">
          <mxGeometry x="240" y="400" width="130" height="40" as="geometry" />
        </mxCell>
        <mxCell id="vuSV0FD79FYL1Kji3ITV-33" style="edgeStyle=orthogonalEdgeStyle;rounded=0;orthogonalLoop=1;jettySize=auto;html=1;exitX=1;exitY=0.5;exitDx=0;exitDy=0;entryX=0;entryY=0.5;entryDx=0;entryDy=0;" edge="1" parent="vuSV0FD79FYL1Kji3ITV-43" source="vuSV0FD79FYL1Kji3ITV-1" target="vuSV0FD79FYL1Kji3ITV-32">
          <mxGeometry relative="1" as="geometry">
            <Array as="points">
              <mxPoint x="160" y="100" />
              <mxPoint x="160" y="420" />
            </Array>
          </mxGeometry>
        </mxCell>
        <mxCell id="vuSV0FD79FYL1Kji3ITV-35" value="Quản lý giỏ hàng" style="rounded=0;whiteSpace=wrap;html=1;" vertex="1" parent="vuSV0FD79FYL1Kji3ITV-43">
          <mxGeometry x="240" y="480" width="130" height="40" as="geometry" />
        </mxCell>
        <mxCell id="vuSV0FD79FYL1Kji3ITV-36" style="edgeStyle=orthogonalEdgeStyle;rounded=0;orthogonalLoop=1;jettySize=auto;html=1;entryX=0;entryY=0.5;entryDx=0;entryDy=0;" edge="1" parent="vuSV0FD79FYL1Kji3ITV-43" source="vuSV0FD79FYL1Kji3ITV-1" target="vuSV0FD79FYL1Kji3ITV-35">
          <mxGeometry relative="1" as="geometry">
            <Array as="points">
              <mxPoint x="160" y="100" />
              <mxPoint x="160" y="500" />
            </Array>
          </mxGeometry>
        </mxCell>
        <mxCell id="vuSV0FD79FYL1Kji3ITV-37" value="Mua hàng" style="rounded=0;whiteSpace=wrap;html=1;" vertex="1" parent="vuSV0FD79FYL1Kji3ITV-43">
          <mxGeometry x="480" y="480" width="130" height="40" as="geometry" />
        </mxCell>
        <mxCell id="vuSV0FD79FYL1Kji3ITV-38" style="edgeStyle=orthogonalEdgeStyle;rounded=0;orthogonalLoop=1;jettySize=auto;html=1;entryX=0;entryY=0.5;entryDx=0;entryDy=0;" edge="1" parent="vuSV0FD79FYL1Kji3ITV-43" source="vuSV0FD79FYL1Kji3ITV-35" target="vuSV0FD79FYL1Kji3ITV-37">
          <mxGeometry relative="1" as="geometry" />
        </mxCell>
        <mxCell id="vuSV0FD79FYL1Kji3ITV-39" value="Chat" style="rounded=0;whiteSpace=wrap;html=1;" vertex="1" parent="vuSV0FD79FYL1Kji3ITV-43">
          <mxGeometry x="240" y="560" width="130" height="40" as="geometry" />
        </mxCell>
        <mxCell id="vuSV0FD79FYL1Kji3ITV-40" style="edgeStyle=orthogonalEdgeStyle;rounded=0;orthogonalLoop=1;jettySize=auto;html=1;entryX=0;entryY=0.5;entryDx=0;entryDy=0;" edge="1" parent="vuSV0FD79FYL1Kji3ITV-43" source="vuSV0FD79FYL1Kji3ITV-1" target="vuSV0FD79FYL1Kji3ITV-39">
          <mxGeometry relative="1" as="geometry">
            <Array as="points">
              <mxPoint x="160" y="100" />
              <mxPoint x="160" y="580" />
            </Array>
          </mxGeometry>
        </mxCell>
        <mxCell id="vuSV0FD79FYL1Kji3ITV-41" value="Đăng ký thành viên" style="rounded=0;whiteSpace=wrap;html=1;" vertex="1" parent="vuSV0FD79FYL1Kji3ITV-43">
          <mxGeometry x="240" y="640" width="130" height="40" as="geometry" />
        </mxCell>
        <mxCell id="vuSV0FD79FYL1Kji3ITV-42" style="edgeStyle=orthogonalEdgeStyle;rounded=0;orthogonalLoop=1;jettySize=auto;html=1;entryX=0;entryY=0.5;entryDx=0;entryDy=0;" edge="1" parent="vuSV0FD79FYL1Kji3ITV-43" source="vuSV0FD79FYL1Kji3ITV-1" target="vuSV0FD79FYL1Kji3ITV-41">
          <mxGeometry relative="1" as="geometry">
            <Array as="points">
              <mxPoint x="160" y="100" />
              <mxPoint x="160" y="660" />
            </Array>
          </mxGeometry>
        </mxCell>
      </root>
    </mxGraphModel>
  </diagram>
</mxfile>
